<svg width="27" height="27" viewBox="0 0 27 27" fill="none" xmlns="http://www.w3.org/2000/svg">
<path d="M17.3889 9.33333C17.1373 8.89689 16.7717 8.53709 16.3314 8.29243C15.891 8.04778 15.3924 7.92749 14.8889 7.94444H12.1111C11.3744 7.94444 10.6679 8.2371 10.1469 8.75804C9.62599 9.27897 9.33333 9.98551 9.33333 10.7222C9.33333 11.4589 9.62599 12.1655 10.1469 12.6864C10.6679 13.2073 11.3744 13.5 12.1111 13.5H14.8889C15.6256 13.5 16.3321 13.7927 16.8531 14.3136C17.374 14.8345 17.6667 15.5411 17.6667 16.2778C17.6667 17.0145 17.374 17.721 16.8531 18.242C16.3321 18.7629 15.6256 19.0556 14.8889 19.0556H12.1111C11.6076 19.0725 11.109 18.9522 10.6686 18.7076C10.2283 18.4629 9.86271 18.1031 9.61111 17.6667M13.5 6.55556V20.4444M26 13.5C26 20.4036 20.4036 26 13.5 26C6.59644 26 1 20.4036 1 13.5C1 6.59644 6.59644 1 13.5 1C20.4036 1 26 6.59644 26 13.5Z" stroke="#56FE8F" stroke-width="2" stroke-linecap="round" stroke-linejoin="round"/>
</svg>
