<svg width="50" height="50" viewBox="0 0 50 50" fill="none" xmlns="http://www.w3.org/2000/svg">
<path fill-rule="evenodd" clip-rule="evenodd" d="M44.4055 30.5209C46.2502 27.6269 47.2276 24.2652 47.2222 20.8334C47.2222 10.8611 39.1389 2.7778 29.1666 2.7778C25.6014 2.7778 22.2778 3.81114 19.4791 5.59308C17.6166 5.69755 15.7732 6.02298 13.9875 6.56252C15.9335 4.48774 18.2849 2.8347 20.8959 1.70586C23.507 0.577013 26.322 -0.00359086 29.1666 2.57257e-05C40.6722 2.57257e-05 50 9.3278 50 20.8334C50.0034 23.6779 49.4227 26.4929 48.2939 29.1039C47.1651 31.715 45.5121 34.0664 43.4375 36.0125C43.9666 34.2583 44.2986 32.4195 44.4055 30.5209Z" fill="black" fill-opacity="0.52"/>
<path fill-rule="evenodd" clip-rule="evenodd" d="M47.1291 31.3931C46.1235 33.0999 44.8805 34.6552 43.4375 36.0125C43.9666 34.2583 44.2986 32.4195 44.4055 30.5209C46.2502 27.6269 47.2276 24.2652 47.2222 20.8334C47.2222 10.8611 39.1389 2.7778 29.1666 2.7778C25.6014 2.7778 22.2778 3.81114 19.4791 5.59308C17.6166 5.69755 15.7732 6.02298 13.9875 6.56252C15.3448 5.11952 16.9001 3.87655 18.6069 2.87086C21.8063 0.985648 25.4532 -0.00582282 29.1666 2.57257e-05C40.6722 2.57257e-05 50 9.3278 50 20.8334C50.0065 24.5469 49.015 28.194 47.1291 31.3931Z" fill="black" fill-opacity="0.52"/>
<path fill-rule="evenodd" clip-rule="evenodd" d="M41.6667 29.1667C41.6667 40.6722 32.3389 50 20.8333 50C9.32778 50 0 40.6722 0 29.1667C0 17.6611 9.32778 8.33336 20.8333 8.33336C32.3389 8.33336 41.6667 17.6611 41.6667 29.1667ZM19.4444 22.2222C18.7077 22.2222 18.0012 22.5149 17.4803 23.0358C16.9593 23.5568 16.6667 24.2633 16.6667 25C16.6667 25.7367 16.9593 26.4433 17.4803 26.9642C18.0012 27.4851 18.7077 27.7778 19.4444 27.7778V22.2222ZM22.2222 19.4445V18.0556H19.4444V19.4445C17.971 19.4445 16.5579 20.0298 15.5161 21.0717C14.4742 22.1135 13.8889 23.5266 13.8889 25C13.8889 26.4734 14.4742 27.8865 15.5161 28.9284C16.5579 29.9703 17.971 30.5556 19.4444 30.5556V36.1111C18.2361 36.1111 17.2069 35.3403 16.8236 34.2597C16.7667 34.083 16.675 33.9194 16.5538 33.7787C16.4326 33.638 16.2844 33.523 16.118 33.4405C15.9516 33.3581 15.7703 33.3099 15.585 33.2987C15.3996 33.2876 15.2139 33.3137 15.0388 33.3755C14.8637 33.4374 14.7028 33.5338 14.5655 33.6589C14.4283 33.784 14.3176 33.9354 14.2399 34.1041C14.1622 34.2728 14.1192 34.4553 14.1133 34.6409C14.1074 34.8266 14.1387 35.0115 14.2056 35.1847C14.5887 36.268 15.2982 37.2059 16.2364 37.8693C17.1746 38.5327 18.2954 38.8889 19.4444 38.8889V40.2778H22.2222V38.8889C23.6956 38.8889 25.1087 38.3036 26.1506 37.2617C27.1925 36.2199 27.7778 34.8068 27.7778 33.3334C27.7778 31.8599 27.1925 30.4469 26.1506 29.405C25.1087 28.3631 23.6956 27.7778 22.2222 27.7778V22.2222C23.4306 22.2222 24.4597 22.9931 24.8431 24.0736C24.8999 24.2504 24.9917 24.414 25.1129 24.5547C25.2341 24.6954 25.3823 24.8104 25.5487 24.8928C25.7151 24.9753 25.8963 25.0235 26.0817 25.0347C26.2671 25.0458 26.4528 25.0197 26.6279 24.9578C26.803 24.896 26.9639 24.7996 27.1011 24.6745C27.2383 24.5493 27.3491 24.398 27.4267 24.2293C27.5044 24.0606 27.5475 23.878 27.5534 23.6924C27.5593 23.5068 27.5279 23.3219 27.4611 23.1486C27.078 22.0653 26.3685 21.1274 25.4303 20.4641C24.4921 19.8007 23.3713 19.4445 22.2222 19.4445ZM22.2222 30.5556V36.1111C22.9589 36.1111 23.6655 35.8185 24.1864 35.2975C24.7073 34.7766 25 34.0701 25 33.3334C25 32.5966 24.7073 31.8901 24.1864 31.3692C23.6655 30.8482 22.9589 30.5556 22.2222 30.5556Z" fill="black" fill-opacity="0.52"/>
</svg>
