<svg width="29" height="25" viewBox="0 0 29 25" fill="none" xmlns="http://www.w3.org/2000/svg">
<path d="M1.375 7.58333V4.66667C1.375 3.89312 1.68229 3.15125 2.22927 2.60427C2.77625 2.05729 3.51812 1.75 4.29167 1.75H7.20833M1.375 7.58333C3.31896 7.58333 7.20833 6.41667 7.20833 1.75M1.375 7.58333V13.4167M7.20833 1.75H21.7917M1.375 13.4167V16.3333C1.375 17.1069 1.68229 17.8487 2.22927 18.3957C2.77625 18.9427 3.51812 19.25 4.29167 19.25H7.20833M1.375 13.4167C3.31896 13.4167 7.20833 14.5833 7.20833 19.25M27.625 7.58333V4.66667C27.625 3.89312 27.3177 3.15125 26.7707 2.60427C26.2237 2.05729 25.4819 1.75 24.7083 1.75H21.7917M27.625 7.58333C25.681 7.58333 21.7917 6.41667 21.7917 1.75M27.625 7.58333V10.5M7.20833 19.25H13.0417M23.25 14.875V19.25M23.25 19.25V23.625M23.25 19.25H18.875M23.25 19.25H27.625M17.4167 10.5C17.4167 12.1108 16.1108 13.4167 14.5 13.4167C12.8892 13.4167 11.5833 12.1108 11.5833 10.5C11.5833 8.88917 12.8892 7.58333 14.5 7.58333C16.1108 7.58333 17.4167 8.88917 17.4167 10.5Z" stroke="black" stroke-opacity="0.52" stroke-width="2" stroke-linecap="round" stroke-linejoin="round"/>
</svg>
