<svg width="32" height="32" viewBox="0 0 32 32" fill="none" xmlns="http://www.w3.org/2000/svg">
<path d="M10.0027 19.0054C14.9747 19.0054 19.0054 14.9747 19.0054 10.0027C19.0054 5.03064 14.9747 1 10.0027 1C5.03064 1 1 5.03064 1 10.0027C1 14.9747 5.03064 19.0054 10.0027 19.0054Z" stroke="#56FE8F" stroke-width="2" stroke-linecap="round" stroke-linejoin="round"/>
<path d="M25.1422 13.5588C26.5606 14.0876 27.8228 14.9655 28.812 16.1113C29.8011 17.2572 30.4854 18.6339 30.8015 20.1143C31.1176 21.5947 31.0554 23.1309 30.6204 24.5808C30.1855 26.0308 29.392 27.3476 28.3133 28.4096C27.2346 29.4716 25.9055 30.2445 24.449 30.6567C22.9925 31.069 21.4555 31.1073 19.9802 30.7681C18.5049 30.4289 17.139 29.7232 16.0087 28.7163C14.8785 27.7093 14.0204 26.4337 13.5138 25.0072M8.50226 7.0018H10.0027V13.0036" stroke="#56FE8F" stroke-width="2" stroke-linecap="round" stroke-linejoin="round"/>
<path d="M23.0716 18.8253L24.1219 19.8907L19.8907 24.1219" stroke="#56FE8F" stroke-width="2" stroke-linecap="round" stroke-linejoin="round"/>
</svg>
