<svg width="27" height="28" viewBox="0 0 27 28" fill="none" xmlns="http://www.w3.org/2000/svg">
<path d="M19.0556 2.82283H23.2222C23.9589 2.82283 24.6655 3.11549 25.1864 3.63642C25.7073 4.15736 26 4.8639 26 5.60061V6.9895M19.0556 25.0451H23.2222C23.9589 25.0451 24.6655 24.7524 25.1864 24.2315C25.7073 23.7105 26 23.004 26 22.2673V20.8784M2.97917 24.2506L11.3125 26.7506C11.7273 26.8751 12.1655 26.9009 12.5921 26.8259C13.0187 26.7509 13.4218 26.5772 13.7693 26.3187C14.1168 26.0601 14.399 25.7239 14.5934 25.3368C14.7878 24.9498 14.889 24.5226 14.8889 24.0895V3.77839C14.889 3.34526 14.7878 2.91812 14.5934 2.53107C14.399 2.14402 14.1168 1.80779 13.7693 1.54924C13.4218 1.29068 13.0187 1.11697 12.5921 1.04196C12.1655 0.966963 11.7273 0.992753 11.3125 1.11728L2.97917 3.61728C2.40697 3.78903 1.9054 4.14069 1.54887 4.62006C1.19235 5.09943 0.999869 5.68097 1 6.27839V21.5895C0.999869 22.1869 1.19235 22.7685 1.54887 23.2478C1.9054 23.7272 2.40697 24.0789 2.97917 24.2506ZM9.33472 13.9339H9.33333H9.33472ZM19.0556 13.9339H26H19.0556ZM26 13.9339L23.2222 11.1562L26 13.9339ZM26 13.9339L23.2222 16.7117L26 13.9339Z" fill="#56FE8F"/>
<path d="M19.0556 2.82283H23.2222C23.9589 2.82283 24.6655 3.11549 25.1864 3.63642C25.7073 4.15736 26 4.8639 26 5.60061V6.9895M19.0556 25.0451H23.2222C23.9589 25.0451 24.6655 24.7524 25.1864 24.2315C25.7073 23.7105 26 23.004 26 22.2673V20.8784M9.33472 13.9339H9.33333M19.0556 13.9339H26M26 13.9339L23.2222 11.1562M26 13.9339L23.2222 16.7117M2.97917 24.2506L11.3125 26.7506C11.7273 26.8751 12.1655 26.9009 12.5921 26.8259C13.0187 26.7509 13.4218 26.5772 13.7693 26.3187C14.1168 26.0601 14.399 25.7239 14.5934 25.3368C14.7878 24.9498 14.889 24.5226 14.8889 24.0895V3.77839C14.889 3.34526 14.7878 2.91812 14.5934 2.53107C14.399 2.14402 14.1168 1.80779 13.7693 1.54924C13.4218 1.29068 13.0187 1.11697 12.5921 1.04196C12.1655 0.966963 11.7273 0.992753 11.3125 1.11728L2.97917 3.61728C2.40697 3.78903 1.9054 4.14069 1.54887 4.62006C1.19235 5.09943 0.999869 5.68097 1 6.27839V21.5895C0.999869 22.1869 1.19235 22.7685 1.54887 23.2478C1.9054 23.7272 2.40697 24.0789 2.97917 24.2506V24.2506Z" stroke="#56FE8F" stroke-width="2" stroke-linecap="round" stroke-linejoin="round"/>
</svg>
