<svg width="28" height="36" viewBox="0 0 28 36" fill="none" xmlns="http://www.w3.org/2000/svg">
<path d="M6.36364 20.3636H16.5455V22.9091H6.36364V20.3636ZM6.36364 14H21.6364V16.5455H6.36364V14ZM6.36364 26.7273H12.7273V29.2727H6.36364V26.7273Z" fill="#56FE8F"/>
<path d="M25.4545 3.81818H21.6364V2.54545C21.6364 1.87036 21.3682 1.22291 20.8908 0.745546C20.4135 0.268181 19.766 0 19.0909 0H8.90909C8.23399 0 7.58655 0.268181 7.10918 0.745546C6.63182 1.22291 6.36364 1.87036 6.36364 2.54545V3.81818H2.54545C1.87036 3.81818 1.22291 4.08636 0.745546 4.56373C0.268181 5.04109 0 5.68854 0 6.36364V33.0909C0 33.766 0.268181 34.4135 0.745546 34.8908C1.22291 35.3682 1.87036 35.6364 2.54545 35.6364H25.4545C26.1296 35.6364 26.7771 35.3682 27.2545 34.8908C27.7318 34.4135 28 33.766 28 33.0909V6.36364C28 5.68854 27.7318 5.04109 27.2545 4.56373C26.7771 4.08636 26.1296 3.81818 25.4545 3.81818ZM8.90909 2.54545H19.0909V7.63636H8.90909V2.54545ZM25.4545 33.0909H2.54545V6.36364H6.36364V10.1818H21.6364V6.36364H25.4545V33.0909Z" fill="#56FE8F"/>
</svg>
