<svg width="30" height="24" viewBox="0 0 30 24" fill="none" xmlns="http://www.w3.org/2000/svg">
<path d="M8.75 0C10.9912 0 13.0225 0.336 14.61 0.969C16.1962 1.602 17.5 2.633 17.5 4V8C17.5 8.129 17.4462 8.254 17.4213 8.375C18.6725 8.12064 19.959 7.99463 21.25 8C23.4913 8 25.5225 8.336 27.11 8.969C28.6963 9.602 30 10.633 30 12V20C30 21.367 28.6962 22.398 27.1087 23.031C25.5225 23.664 23.4913 24 21.25 24C19.0087 24 16.9775 23.664 15.39 23.031C13.805 22.398 12.5 21.367 12.5 20V19.594C11.2772 19.8585 10.0167 19.9949 8.75 20C6.50875 20 4.4775 19.664 2.89 19.031C1.305 18.398 0 17.367 0 16V4C0 2.633 1.30375 1.602 2.89125 0.969C4.47625 0.336 6.5075 0 8.75 0ZM8.75 2C6.84625 2 5.15125 2.328 4.02375 2.781C2.895 3.234 2.5 3.711 2.5 4C2.5 4.29 2.895 4.766 4.02375 5.219C5.15 5.672 6.84625 6 8.75 6C10.6537 6 12.3488 5.672 13.4762 5.219C14.605 4.766 15 4.289 15 4C15 3.71 14.605 3.234 13.4762 2.781C12.35 2.328 10.6537 2 8.75 2ZM15 6.844C14.8687 6.902 14.7463 6.977 14.6088 7.031C13.0225 7.664 10.9912 8 8.75 8C6.50875 8 4.4775 7.664 2.89 7.031C2.75375 6.977 2.63125 6.902 2.5 6.844V8C2.5 8.29 2.895 8.766 4.02375 9.219C5.15125 9.672 6.84625 10 8.75 10C10.6537 10 12.3488 9.672 13.4762 9.219C14.605 8.766 15 8.289 15 8V6.844ZM21.25 10C19.3462 10 17.6512 10.328 16.5238 10.781C15.395 11.234 15 11.711 15 12C15 12.29 15.395 12.766 16.5238 13.219C17.6512 13.672 19.3462 14 21.25 14C23.1537 14 24.8488 13.672 25.9763 13.219C27.105 12.766 27.5 12.289 27.5 12C27.5 11.71 27.105 11.234 25.9763 10.781C24.85 10.328 23.1537 10 21.25 10ZM2.5 10.844V12C2.5 12.29 2.895 12.766 4.02375 13.219C5.15125 13.672 6.84625 14 8.75 14C10.0233 14.0055 11.2895 13.8472 12.5 13.531V12C12.5 11.871 12.5537 11.746 12.5788 11.625C11.4163 11.867 10.1275 12 8.75 12C6.50875 12 4.4775 11.664 2.89 11.031C2.75375 10.977 2.63125 10.902 2.5 10.844ZM27.5 14.844C27.3688 14.902 27.2462 14.977 27.1087 15.031C25.5225 15.664 23.4913 16 21.25 16C19.0087 16 16.9775 15.664 15.39 15.031C15.2538 14.977 15.1313 14.902 15 14.844V16C15 16.29 15.395 16.766 16.5238 17.219C17.6512 17.672 19.3462 18 21.25 18C23.1537 18 24.8488 17.672 25.9763 17.219C27.105 16.766 27.5 16.289 27.5 16V14.844ZM2.5 14.844V16C2.5 16.29 2.895 16.766 4.02375 17.219C5.15125 17.672 6.84625 18 8.75 18C10.1712 18 11.455 17.84 12.5 17.562V15.625C11.3525 15.867 10.1025 16 8.75 16C6.50875 16 4.4775 15.664 2.89 15.031C2.75375 14.977 2.63125 14.902 2.5 14.844ZM27.5 18.844C27.3688 18.902 27.2462 18.977 27.1087 19.031C25.5225 19.664 23.4913 20 21.25 20C19.0087 20 16.9775 19.664 15.39 19.031C15.2538 18.977 15.1313 18.902 15 18.844V20C15 20.29 15.395 20.766 16.5238 21.219C17.6512 21.672 19.3462 22 21.25 22C23.1537 22 24.8488 21.672 25.9763 21.219C27.105 20.766 27.5 20.289 27.5 20V18.844Z" fill="#56FE8F"/>
</svg>
