<svg width="30" height="30" viewBox="0 0 30 30" fill="none" xmlns="http://www.w3.org/2000/svg">
<path d="M12 3C10.4087 3 8.88258 3.63214 7.75736 4.75736C6.63214 5.88258 6 7.4087 6 9C6 10.5913 6.63214 12.1174 7.75736 13.2426C8.88258 14.3679 10.4087 15 12 15C13.5913 15 15.1174 14.3679 16.2426 13.2426C17.3679 12.1174 18 10.5913 18 9C18 7.4087 17.3679 5.88258 16.2426 4.75736C15.1174 3.63214 13.5913 3 12 3ZM3 9C3 6.61305 3.94821 4.32387 5.63604 2.63604C7.32387 0.948211 9.61305 0 12 0C14.3869 0 16.6761 0.948211 18.364 2.63604C20.0518 4.32387 21 6.61305 21 9C21 11.3869 20.0518 13.6761 18.364 15.364C16.6761 17.0518 14.3869 18 12 18C9.61305 18 7.32387 17.0518 5.63604 15.364C3.94821 13.6761 3 11.3869 3 9ZM22.242 2.6355C22.3813 2.49604 22.5467 2.3854 22.7288 2.30991C22.9109 2.23442 23.1061 2.19557 23.3032 2.19557C23.5004 2.19557 23.6956 2.23442 23.8777 2.30991C24.0598 2.3854 24.2252 2.49604 24.3645 2.6355C25.2004 3.47125 25.8635 4.46347 26.3158 5.5555C26.7682 6.64753 27.0011 7.81798 27.0011 9C27.0011 10.182 26.7682 11.3525 26.3158 12.4445C25.8635 13.5365 25.2004 14.5288 24.3645 15.3645C24.2251 15.5039 24.0597 15.6144 23.8776 15.6898C23.6955 15.7653 23.5003 15.8041 23.3032 15.8041C23.1062 15.8041 22.911 15.7653 22.7289 15.6898C22.5468 15.6144 22.3814 15.5039 22.242 15.3645C22.1026 15.2251 21.9921 15.0597 21.9167 14.8776C21.8412 14.6955 21.8024 14.5003 21.8024 14.3032C21.8024 14.1062 21.8412 13.911 21.9167 13.7289C21.9921 13.5468 22.1026 13.3814 22.242 13.242C23.3668 12.1168 23.9987 10.591 23.9987 9C23.9987 7.40902 23.3668 5.88317 22.242 4.758C22.1025 4.61869 21.9919 4.45326 21.9164 4.27116C21.8409 4.08906 21.8021 3.89387 21.8021 3.69675C21.8021 3.49963 21.8409 3.30444 21.9164 3.12234C21.9919 2.94024 22.1025 2.77481 22.242 2.6355ZM23.295 22.1355C23.3917 21.7499 23.6375 21.4185 23.9784 21.2141C24.3192 21.0096 24.7273 20.9488 25.113 21.045C27.105 21.543 28.3665 22.815 29.091 24.267C29.793 25.6695 30 27.237 30 28.5C30 28.8978 29.842 29.2794 29.5607 29.5607C29.2794 29.842 28.8978 30 28.5 30C28.1022 30 27.7206 29.842 27.4393 29.5607C27.158 29.2794 27 28.8978 27 28.5C27 27.5145 26.832 26.4555 26.409 25.608C26.0085 24.8085 25.3935 24.207 24.3855 23.955C23.9999 23.8583 23.6685 23.6125 23.4641 23.2716C23.2596 22.9308 23.1988 22.5227 23.295 22.137V22.1355ZM6.75 24C4.86 24 3 25.8195 3 28.5C3 28.8978 2.84196 29.2794 2.56066 29.5607C2.27936 29.842 1.89782 30 1.5 30C1.10218 30 0.720644 29.842 0.43934 29.5607C0.158035 29.2794 0 28.8978 0 28.5C0 24.552 2.8395 21 6.75 21H17.25C21.1605 21 24 24.552 24 28.5C24 28.8978 23.842 29.2794 23.5607 29.5607C23.2794 29.842 22.8978 30 22.5 30C22.1022 30 21.7206 29.842 21.4393 29.5607C21.158 29.2794 21 28.8978 21 28.5C21 25.8195 19.14 24 17.25 24H6.75Z" fill="#56FE8F"/>
</svg>
