<svg width="32" height="33" viewBox="0 0 32 33" fill="none" xmlns="http://www.w3.org/2000/svg">
<path fill-rule="evenodd" clip-rule="evenodd" d="M4.34445 25.94C1.83455 23.1859 0.308301 19.5504 0.308301 15.5639C0.308301 6.96807 7.40305 0 16.1545 0C24.9053 0 32 6.96807 32 15.5639C32 21.6421 28.4515 26.9039 23.2798 29.4664C20.0048 31.171 16.366 32.0578 12.6739 32.0511C7.97921 32.0511 3.6172 30.6477 0 28.2454C0 28.2454 2.42597 27.9806 4.34216 25.9393H4.34369L4.34445 25.94ZM23.598 23.2676C27.6983 19.1689 27.6983 12.5228 23.598 8.42258C21.7746 6.594 19.339 5.50479 16.7605 5.36475C16.6857 3.49739 17.6907 2.23671 17.6953 2.23061V2.22984C14.7365 2.80032 12.0173 4.24633 9.89006 6.38046C8.24726 8.01848 7.00537 10.0141 6.26142 12.2115C6.36673 11.9322 6.48501 11.6559 6.61474 11.3843C6.46517 11.7658 6.3301 12.155 6.208 12.5534C5.00761 16.198 5.85467 20.3693 8.75301 23.2676C12.8525 27.3671 19.4985 27.3671 23.598 23.2676Z" fill="#56FE8F"/>
<path fill-rule="evenodd" clip-rule="evenodd" d="M10.847 14.7664V16.939C10.847 17.3553 11.0124 17.7546 11.3068 18.049C11.6012 18.3434 12.0004 18.5088 12.4168 18.5088C12.8331 18.5088 13.2323 18.3434 13.5267 18.049C13.8211 17.7546 13.9865 17.3553 13.9865 16.939V14.7664C13.9865 14.3501 13.8211 13.9508 13.5267 13.6564C13.2323 13.3621 12.8331 13.1967 12.4168 13.1967C12.0004 13.1967 11.6012 13.3621 11.3068 13.6564C11.0124 13.9508 10.847 14.3501 10.847 14.7664ZM18.6179 14.7664V16.939C18.6179 17.3553 18.7833 17.7546 19.0777 18.049C19.372 18.3434 19.7713 18.5088 20.1876 18.5088C20.6039 18.5088 21.0032 18.3434 21.2976 18.049C21.592 17.7546 21.7574 17.3553 21.7574 16.939V14.7664C21.7574 14.3501 21.592 13.9508 21.2976 13.6564C21.0032 13.3621 20.6039 13.1967 20.1876 13.1967C19.7713 13.1967 19.372 13.3621 19.0777 13.6564C18.7833 13.9508 18.6179 14.3501 18.6179 14.7664Z" fill="#56FE8F"/>
</svg>
