<svg width="51" height="51" viewBox="0 0 51 51" fill="none" xmlns="http://www.w3.org/2000/svg">
<path fill-rule="evenodd" clip-rule="evenodd" d="M50 25.5C50 39.031 39.031 50 25.5 50C11.969 50 1 39.031 1 25.5C1 11.969 11.969 1 25.5 1C39.031 1 50 11.969 50 25.5ZM44.9836 25.5C44.9836 36.2605 36.2605 44.9836 25.5 44.9836C14.7395 44.9836 6.01639 36.2605 6.01639 25.5C6.01639 14.7395 14.7395 6.01639 25.5 6.01639C36.2605 6.01639 44.9836 14.7395 44.9836 25.5ZM25.5 46.9836C37.3651 46.9836 46.9836 37.3651 46.9836 25.5C46.9836 13.6349 37.3651 4.01639 25.5 4.01639C13.6349 4.01639 4.01639 13.6349 4.01639 25.5C4.01639 37.3651 13.6349 46.9836 25.5 46.9836ZM51 25.5C51 39.5833 39.5833 51 25.5 51C11.4167 51 0 39.5833 0 25.5C0 11.4167 11.4167 0 25.5 0C39.5833 0 51 11.4167 51 25.5ZM35.7166 18.5094C35.8276 18.6704 35.8959 18.8569 35.9151 19.0515C35.9279 19.1765 37.0279 31.5184 25.9701 36.4359C25.8223 36.5026 25.6621 36.5371 25.5 36.5371C25.3379 36.5371 25.1777 36.5026 25.0299 36.4359C13.9721 31.5184 15.0721 19.1754 15.0849 19.0515C15.1044 18.8571 15.1727 18.6709 15.2834 18.51C15.3942 18.3491 15.5437 18.2187 15.7182 18.131L24.9813 13.4995C25.1421 13.419 25.3195 13.377 25.4994 13.377C25.6793 13.377 25.8567 13.419 26.0176 13.4995L35.2806 18.131C35.4556 18.2182 35.6056 18.3484 35.7166 18.5094ZM25.5 24.9567V34.1005C30.0875 31.8796 32.1011 28.1293 32.9799 24.9567H25.5ZM17.9854 24.9567H25.5V15.8303L17.3555 19.9025C17.3237 21.6087 17.5358 23.3106 17.9854 24.9567Z" fill="#56FE8F"/>
</svg>
