<svg width="121" height="45" viewBox="0 0 121 45" fill="none" xmlns="http://www.w3.org/2000/svg">
<rect width="121" height="45" rx="5" fill="#FFCB12"/>
<path fill-rule="evenodd" clip-rule="evenodd" d="M116.073 43.0537C117.16 43.0438 118.04 42.1674 118.055 41.0805L118.416 14.0309C118.44 12.2384 116.275 11.3221 115.005 12.587L87.5929 39.8834C86.3226 41.1483 87.2298 43.3169 89.0224 43.3005L116.073 43.0537ZM115.703 29.2153C116.41 28.3668 116.295 27.1056 115.447 26.3985C114.598 25.6914 113.337 25.806 112.63 26.6546L105.282 35.4721L101.581 31.7707C100.799 30.9897 99.5331 30.9897 98.7521 31.7707C97.971 32.5518 97.971 33.8181 98.7521 34.5992L104.002 39.8492C104.399 40.2465 104.946 40.4583 105.507 40.4329C106.068 40.4074 106.593 40.147 106.953 39.7153L115.703 29.2153Z" fill="#F46700"/>
<path d="M48.2138 17.0909H49.8651V24.266C49.8651 25.0295 49.6857 25.706 49.3271 26.2955C48.9684 26.8814 48.4641 27.343 47.8143 27.6804C47.1644 28.0142 46.4027 28.1811 45.5291 28.1811C44.6591 28.1811 43.8991 28.0142 43.2493 27.6804C42.5994 27.343 42.0952 26.8814 41.7365 26.2955C41.3778 25.706 41.1985 25.0295 41.1985 24.266V17.0909H42.8445V24.1328C42.8445 24.6264 42.9528 25.065 43.1694 25.4485C43.3896 25.832 43.7003 26.1339 44.1016 26.354C44.5028 26.5707 44.9787 26.679 45.5291 26.679C46.0831 26.679 46.5607 26.5707 46.962 26.354C47.3668 26.1339 47.6758 25.832 47.8888 25.4485C48.1055 25.065 48.2138 24.6264 48.2138 24.1328V17.0909ZM58.208 19.9567C58.1512 19.4524 57.9168 19.0618 57.5049 18.7848C57.093 18.5043 56.5745 18.364 55.9495 18.364C55.502 18.364 55.115 18.435 54.7883 18.5771C54.4616 18.7156 54.2077 18.9073 54.0265 19.1523C53.849 19.3938 53.7602 19.669 53.7602 19.978C53.7602 20.2372 53.8206 20.4609 53.9413 20.6491C54.0656 20.8374 54.2272 20.9954 54.426 21.1232C54.6285 21.2475 54.8451 21.3523 55.0759 21.4375C55.3067 21.5192 55.5287 21.5866 55.7417 21.6399L56.8071 21.9169C57.1551 22.0021 57.512 22.1175 57.8778 22.2631C58.2435 22.4087 58.5827 22.6005 58.8952 22.8384C59.2077 23.0763 59.4598 23.3711 59.6515 23.7227C59.8469 24.0742 59.9445 24.495 59.9445 24.9851C59.9445 25.603 59.7847 26.1516 59.4651 26.631C59.1491 27.1104 58.6892 27.4886 58.0855 27.7656C57.4854 28.0426 56.7591 28.1811 55.9069 28.1811C55.0901 28.1811 54.3834 28.0515 53.7868 27.7923C53.1903 27.533 52.7233 27.1655 52.3859 26.6896C52.0486 26.2102 51.8621 25.642 51.8266 24.9851H53.4779C53.5099 25.3793 53.6377 25.7077 53.8614 25.9705C54.0887 26.2298 54.3781 26.4233 54.7297 26.5511C55.0848 26.6754 55.4736 26.7376 55.8962 26.7376C56.3614 26.7376 56.7751 26.6648 57.1373 26.5192C57.5031 26.37 57.7907 26.1641 58.0003 25.9013C58.2098 25.6349 58.3145 25.3242 58.3145 24.9691C58.3145 24.646 58.2222 24.3814 58.0376 24.1754C57.8564 23.9695 57.6096 23.799 57.2971 23.6641C56.9882 23.5291 56.6384 23.4102 56.2478 23.3072L54.9587 22.9556C54.0851 22.7177 53.3927 22.3679 52.8813 21.9062C52.3735 21.4446 52.1196 20.8338 52.1196 20.0739C52.1196 19.4453 52.29 18.8967 52.6309 18.4279C52.9719 17.9592 53.4335 17.5952 54.0159 17.3359C54.5983 17.0732 55.2552 16.9418 55.9868 16.9418C56.7254 16.9418 57.377 17.0714 57.9417 17.3306C58.5099 17.5898 58.9573 17.9467 59.284 18.4013C59.6107 18.8523 59.7812 19.3707 59.7954 19.9567H58.208ZM65.443 28H61.9114V17.0909H65.5549C66.6238 17.0909 67.5417 17.3093 68.3088 17.7461C69.0758 18.1793 69.6635 18.8026 70.0719 19.6158C70.4838 20.4254 70.6898 21.3967 70.6898 22.5295C70.6898 23.6658 70.4821 24.6424 70.0666 25.4592C69.6547 26.2759 69.0581 26.9045 68.2768 27.3448C67.4956 27.7816 66.551 28 65.443 28ZM63.5574 26.5618H65.3525C66.1834 26.5618 66.8741 26.4055 67.4245 26.093C67.975 25.777 68.3869 25.3207 68.6603 24.7241C68.9338 24.1239 69.0705 23.3924 69.0705 22.5295C69.0705 21.6737 68.9338 20.9474 68.6603 20.3509C68.3904 19.7543 67.9874 19.3015 67.4512 18.9925C66.915 18.6836 66.2491 18.5291 65.4537 18.5291H63.5574V26.5618ZM71.7298 18.5078V17.0909H80.1727V18.5078H76.7689V28H75.1283V18.5078H71.7298Z" fill="black"/>
</svg>
