<svg width="30" height="35" viewBox="0 0 30 35" fill="none" xmlns="http://www.w3.org/2000/svg">
<path d="M15.0043 1.37544C15.257 1.01319 15.5816 0.706907 15.9579 0.475687C16.3341 0.244467 16.7541 0.0932767 17.1914 0.0315489C17.6287 -0.0301789 18.0741 -0.00111938 18.4996 0.116914C18.9252 0.234948 19.3219 0.439423 19.665 0.717582L26.6721 6.40687C27.2982 6.91493 27.7105 7.63975 27.8272 8.43756C27.9439 9.23538 27.7565 10.0479 27.3021 10.714H24.6879L25.5236 9.51615C25.6791 9.29427 25.7448 9.02169 25.7075 8.7533C25.6701 8.48492 25.5324 8.24066 25.3221 8.06972L21.7136 5.14258L17.865 10.714H15.2571L20.0443 3.7883L18.3129 2.38258C18.1985 2.28983 18.0664 2.22162 17.9245 2.18222C17.7827 2.14282 17.6342 2.13307 17.4885 2.15358C17.3427 2.17409 17.2027 2.22441 17.0773 2.30142C16.9518 2.37843 16.8436 2.48046 16.7593 2.60115L11.1 10.7119H8.48571L15.0043 1.37544ZM22.5 23.5712C22.2158 23.5712 21.9433 23.684 21.7424 23.885C21.5415 24.0859 21.4286 24.3584 21.4286 24.6426C21.4286 24.9267 21.5415 25.1993 21.7424 25.4002C21.9433 25.6011 22.2158 25.714 22.5 25.714H24.6429C24.927 25.714 25.1995 25.6011 25.4005 25.4002C25.6014 25.1993 25.7143 24.9267 25.7143 24.6426C25.7143 24.3584 25.6014 24.0859 25.4005 23.885C25.1995 23.684 24.927 23.5712 24.6429 23.5712H22.5ZM3.21429 8.57115H7.86214L6.36214 10.714H3.21429C2.93012 10.714 2.6576 10.8269 2.45667 11.0278C2.25574 11.2288 2.14286 11.5013 2.14286 11.7854C2.14286 12.0696 2.25574 12.3421 2.45667 12.5431C2.6576 12.744 2.93012 12.8569 3.21429 12.8569H25.7143C26.8509 12.8569 27.941 13.3084 28.7447 14.1121C29.5485 14.9159 30 16.0059 30 17.1426V29.9997C30 31.1364 29.5485 32.2265 28.7447 33.0302C27.941 33.8339 26.8509 34.2854 25.7143 34.2854H5.35714C3.93634 34.2854 2.57373 33.721 1.56907 32.7164C0.564412 31.7117 0 30.3491 0 28.9283V11.7854C0 10.933 0.338647 10.1154 0.941443 9.51259C1.54424 8.9098 2.3618 8.57115 3.21429 8.57115ZM2.14286 28.9283C2.14286 29.7808 2.4815 30.5983 3.0843 31.2011C3.68709 31.8039 4.50466 32.1426 5.35714 32.1426H25.7143C26.2826 32.1426 26.8277 31.9168 27.2295 31.515C27.6314 31.1131 27.8571 30.568 27.8571 29.9997V17.1426C27.8571 16.5743 27.6314 16.0292 27.2295 15.6274C26.8277 15.2255 26.2826 14.9997 25.7143 14.9997H3.21429C2.83929 14.9997 2.47714 14.9354 2.14286 14.8176V28.9283Z" fill="#56FE8F"/>
</svg>
