<svg width="28" height="21" viewBox="0 0 28 21" fill="none" xmlns="http://www.w3.org/2000/svg">
<path d="M26.7273 0H1.27273C0.935179 0 0.611456 0.110625 0.372773 0.307538C0.13409 0.504451 0 0.771523 0 1.05V9.45C0 9.72848 0.13409 9.99555 0.372773 10.1925C0.611456 10.3894 0.935179 10.5 1.27273 10.5H5.09091V19.95C5.09091 20.2285 5.225 20.4955 5.46368 20.6925C5.70236 20.8894 6.02609 21 6.36364 21H21.6364C21.9739 21 22.2976 20.8894 22.5363 20.6925C22.775 20.4955 22.9091 20.2285 22.9091 19.95V10.5H26.7273C27.0648 10.5 27.3885 10.3894 27.6272 10.1925C27.8659 9.99555 28 9.72848 28 9.45V1.05C28 0.771523 27.8659 0.504451 27.6272 0.307538C27.3885 0.110625 27.0648 0 26.7273 0ZM7.63636 18.9V16.8C8.31146 16.8 8.95891 17.0212 9.43627 17.4151C9.91364 17.8089 10.1818 18.343 10.1818 18.9H7.63636ZM20.3636 18.9H17.8182C17.8182 18.343 18.0864 17.8089 18.5637 17.4151C19.0411 17.0212 19.6885 16.8 20.3636 16.8V18.9ZM20.3636 14.7C19.0134 14.7 17.7185 15.1425 16.7638 15.9302C15.8091 16.7178 15.2727 17.7861 15.2727 18.9H12.7273C12.7273 17.7861 12.1909 16.7178 11.2362 15.9302C10.2814 15.1425 8.98656 14.7 7.63636 14.7V6.3H20.3636V14.7ZM25.4545 8.4H22.9091V5.25C22.9091 4.97152 22.775 4.70445 22.5363 4.50754C22.2976 4.31062 21.9739 4.2 21.6364 4.2H6.36364C6.02609 4.2 5.70236 4.31062 5.46368 4.50754C5.225 4.70445 5.09091 4.97152 5.09091 5.25V8.4H2.54545V2.1H25.4545V8.4ZM14 13.65C14.7552 13.65 15.4934 13.4653 16.1213 13.1191C16.7492 12.773 17.2386 12.281 17.5275 11.7055C17.8165 11.1299 17.8921 10.4965 17.7448 9.88546C17.5975 9.27442 17.2338 8.71315 16.6999 8.27261C16.1659 7.83208 15.4855 7.53207 14.7449 7.41053C14.0042 7.28898 13.2365 7.35136 12.5388 7.58978C11.8412 7.8282 11.2448 8.23194 10.8253 8.74995C10.4058 9.26797 10.1818 9.87699 10.1818 10.5C10.1818 11.3354 10.5841 12.1366 11.3001 12.7274C12.0162 13.3181 12.9874 13.65 14 13.65ZM14 9.45C14.2517 9.45 14.4978 9.51158 14.7071 9.62696C14.9164 9.74233 15.0795 9.90632 15.1758 10.0982C15.2722 10.29 15.2974 10.5012 15.2483 10.7048C15.1992 10.9085 15.0779 11.0956 14.9 11.2425C14.722 11.3893 14.4952 11.4893 14.2483 11.5298C14.0014 11.5703 13.7455 11.5495 13.5129 11.4701C13.2804 11.3906 13.0816 11.256 12.9418 11.0833C12.8019 10.9107 12.7273 10.7077 12.7273 10.5C12.7273 10.2215 12.8614 9.95445 13.1 9.75754C13.3387 9.56062 13.6625 9.45 14 9.45Z" fill="black" fill-opacity="0.52"/>
</svg>
